# xmcd
#
# Track frame offsets:
#	150
#	17548
#	38410
#	49065
#	62578
#	80256
#	90480
#	105376
#	118846
#	134305
#	144915
#	158824
#	171688
#	187126
#	200322
#	212248
#	227129
#	238444
#	248323
#	265899
#	278275
#
# Disc length: 3866 seconds
#
# Revision: 1
# Processed by: cddbd v1.5.2PL0 Copyright (c) Steve Scherf et al.
# Submitted via: audiograbber 1.83.01
#
DISCID=1a0f1815
DTITLE=Western Heart - Western Heart 091
DYEAR=2008
DGENRE=Country
TTITLE0=Making Plans  - Perley Curtis and Erin Hay
TTITLE1=Farwell To Arms  - Dick Damron
TTITLE2=Comeback, Texas  - The Matekies
TTITLE3=Rock and Roll Is Here To Stay  - Jim Marlboro and The Cruisers 
TTITLE4=Nothing Like A Dream  - Desi Hickman
TTITLE5=It압 To Early To Cry In My Beer  - Allen Karl
TTITLE6=Goodbye Might Not Be The Thing To Do  - Stan Cox
TTITLE7=Go Away Come Back  - Kel Anne Brandt
TTITLE8=Play Guitar Play  - Jim Russ
TTITLE9=Together Again - Jerry Hill
TTITLE10=Uzis In The Barn  - Stephen Shepherd
TTITLE11=Ace In The Hole - David Cline
TTITLE12=I Cannot Bare To See You Cry  - Kerr Donnelly Band
TTITLE13=You Ain앖 Been Left By The Right One Yet  - James Colburn
TTITLE14=Everyboddy압 Got Troubles  - Hal Willis
TTITLE15=The Man Behind The Songs Behind The Teardrops  - Howard Steele
TTITLE16=Let압 Go Dancing  - David Cline
TTITLE17=Crazy Me, Foolish You  - Ernie Ashworth
TTITLE18=Jesus It압 Me Again  - Dick Damron
TTITLE19=She Thinks I Still Care  - Jerry Hill
TTITLE20=They Call The Wind Mariah - Woddy Wills
EXTD=
EXTT0=
EXTT1=
EXTT2=
EXTT3=
EXTT4=
EXTT5=
EXTT6=
EXTT7=
EXTT8=
EXTT9=
EXTT10=
EXTT11=
EXTT12=
EXTT13=
EXTT14=
EXTT15=
EXTT16=
EXTT17=
EXTT18=
EXTT19=
EXTT20=
PLAYORDER=
